<?xml version="1.0" encoding="UTF-8" standalone="no"?>
<!-- Created with Inkscape (http://www.inkscape.org/) -->

<svg
   width="210mm"
   height="297mm"
   viewBox="0 0 210 297"
   version="1.1"
   id="svg1"
   sodipodi:docname="set_cube.svg"
   inkscape:export-filename="cube_background.png"
   inkscape:export-xdpi="96"
   inkscape:export-ydpi="96"
   inkscape:version="1.3.2 (091e20e, 2023-11-25)"
   xml:space="preserve"
   xmlns:inkscape="http://www.inkscape.org/namespaces/inkscape"
   xmlns:sodipodi="http://sodipodi.sourceforge.net/DTD/sodipodi-0.dtd"
   xmlns="http://www.w3.org/2000/svg"
   xmlns:svg="http://www.w3.org/2000/svg"><sodipodi:namedview
     id="namedview1"
     pagecolor="#ffffff"
     bordercolor="#000000"
     borderopacity="0.25"
     inkscape:showpageshadow="false"
     inkscape:pageopacity="0.0"
     inkscape:pagecheckerboard="false"
     inkscape:deskcolor="#d1d1d1"
     inkscape:document-units="mm"
     inkscape:zoom="0.72133318"
     inkscape:cx="551.06296"
     inkscape:cy="589.87998"
     inkscape:window-width="1280"
     inkscape:window-height="776"
     inkscape:window-x="0"
     inkscape:window-y="24"
     inkscape:window-maximized="0"
     inkscape:current-layer="layer2"
     shape-rendering="crispEdges"
     showborder="false"
     borderlayer="false" /><defs
     id="defs1"><inkscape:perspective
       sodipodi:type="inkscape:persp3d"
       inkscape:vp_x="-21.318092 : 149.94611 : 1"
       inkscape:vp_y="0 : 1000 : 0"
       inkscape:vp_z="215.37519 : 145.67519 : 1"
       inkscape:persp3d-origin="70.335265 : 170.91639 : 1"
       id="perspective48" /><inkscape:perspective
       sodipodi:type="inkscape:persp3d"
       inkscape:vp_x="-28.4178 : 211.5904 : 1"
       inkscape:vp_y="0 : 1261.0743 : 0"
       inkscape:vp_z="246.73333 : 217.52885 : 1"
       inkscape:persp3d-origin="113.60179 : 126.88703 : 1"
       id="perspective11" /><clipPath
       clipPathUnits="userSpaceOnUse"
       id="clipPath49"><g
         inkscape:label="Clip"
         id="use49"><g
           sodipodi:type="inkscape:box3d"
           id="g85"
           style="fill:#000000"
           inkscape:perspectiveID="#perspective48"
           inkscape:corner0="0.073223461 : 0.019012896 : 0 : 1"
           inkscape:corner7="0.7651995 : -0.047495083 : 0.635839 : 1"><path
             sodipodi:type="inkscape:box3dside"
             id="path80"
             style="fill:#e9e9ff;fill-rule:evenodd;stroke:none;stroke-linejoin:round"
             inkscape:box3dsidetype="11"
             d="m 454.93815,473.37844 -154.33339,23.75212 v 104.69167 l 154.33339,18.63611 z"
             points="300.60476,497.13056 300.60476,601.82223 454.93815,620.45834 454.93815,473.37844 " /><path
             sodipodi:type="inkscape:box3dside"
             id="path81"
             style="fill:#d7d7ff;fill-rule:evenodd;stroke:none;stroke-linejoin:round"
             inkscape:box3dsidetype="14"
             d="M 115.66975,470.18494 V 612.58739 L 300.60476,601.82223 V 497.13056 Z"
             points="115.66975,612.58739 300.60476,601.82223 300.60476,497.13056 115.66975,470.18494 " /><path
             sodipodi:type="inkscape:box3dside"
             id="path82"
             style="fill:#afafde;fill-rule:evenodd;stroke:none;stroke-linejoin:round"
             inkscape:box3dsidetype="13"
             d="M 242.1996,649.20557 115.66975,612.58739 300.60476,601.82223 454.93815,620.45834 Z"
             points="115.66975,612.58739 300.60476,601.82223 454.93815,620.45834 242.1996,649.20557 " /><path
             sodipodi:type="inkscape:box3dside"
             id="path83"
             style="fill:#4d4d9f;fill-rule:evenodd;stroke:none;stroke-linejoin:round"
             inkscape:box3dsidetype="5"
             d="m 242.1996,414.98712 -126.52985,55.19782 184.93501,26.94562 154.33339,-23.75212 z"
             points="115.66975,470.18494 300.60476,497.13056 454.93815,473.37844 242.1996,414.98712 " /><path
             sodipodi:type="inkscape:box3dside"
             id="path84"
             style="fill:#353564;fill-rule:evenodd;stroke:none;stroke-linejoin:round"
             inkscape:box3dsidetype="6"
             d="M 242.1996,414.98712 V 649.20557 L 454.93815,620.45834 V 473.37844 Z"
             points="242.1996,649.20557 454.93815,620.45834 454.93815,473.37844 242.1996,414.98712 " /><path
             sodipodi:type="inkscape:box3dside"
             id="path85"
             style="fill:#8686bf;fill-rule:evenodd;stroke:none;stroke-linejoin:round"
             inkscape:box3dsidetype="3"
             d="M 242.1996,414.98712 115.66975,470.18494 V 612.58739 L 242.1996,649.20557 Z"
             points="115.66975,470.18494 115.66975,612.58739 242.1996,649.20557 242.1996,414.98712 " /></g></g></clipPath></defs><g
     inkscape:label="Layer 1"
     inkscape:groupmode="layer"
     id="layer1" /><g
     inkscape:groupmode="layer"
     id="layer2"
     inkscape:label="Layer 2"><path
       d="M 71.434736,162.34684 H 95.434824 V 138.34676 H 75.817415 c -2.428015,0 -4.382679,1.95466 -4.382679,4.38268 z"
       style="fill:#ff0000;fill-rule:evenodd;stroke-width:0.27535"
       id="path15" /><path
       d="M 95.434824,188.34681 V 164.34672 H 71.434736 v 19.61741 c 0,2.42801 1.954664,4.38268 4.382679,4.38268 z"
       style="fill:#ff0000;fill-rule:evenodd;stroke-width:0.27535"
       id="path12" /><path
       d="m 97.434704,164.34672 v 24.00009 H 117.0521 c 2.42802,0 4.38268,-1.95467 4.38268,-4.38268 v -19.61741 z"
       style="fill:#ff0000;fill-rule:evenodd;stroke-width:0.27535"
       id="path9" /><path
       d="m 97.434704,138.34676 v 24.00008 h 24.000076 v -19.6174 c 0,-2.42802 -1.95466,-4.38268 -4.38268,-4.38268 z"
       style="fill:#ff0000;fill-rule:evenodd;stroke-width:0.27535"
       id="path5" /><path
       d="m 126.06867,162.34684 h 24.00009 v -24.00008 h -19.61741 c -2.42801,0 -4.38268,1.95466 -4.38268,4.38268 z"
       style="fill:#ff0000;fill-rule:evenodd;stroke-width:0.27535"
       id="path15-8" /><path
       d="m 150.06876,188.34681 v -24.00009 h -24.00009 v 19.61741 c 0,2.42801 1.95467,4.38268 4.38268,4.38268 z"
       style="fill:#ff0000;fill-rule:evenodd;stroke-width:0.27535"
       id="path12-7" /><path
       d="m 152.06864,164.34672 v 24.00009 h 19.6174 c 2.42802,0 4.38268,-1.95467 4.38268,-4.38268 v -19.61741 z"
       style="fill:#ff0000;fill-rule:evenodd;stroke-width:0.27535"
       id="path9-7" /><path
       d="m 152.06864,138.34676 v 24.00008 h 24.00008 v -19.6174 c 0,-2.42802 -1.95466,-4.38268 -4.38268,-4.38268 z"
       style="fill:#ff0000;fill-rule:evenodd;stroke-width:0.27535"
       id="path5-4" /><path
       d="M 16.800798,162.34684 H 40.800886 V 138.34676 H 21.183477 c -2.428015,0 -4.382679,1.95466 -4.382679,4.38268 z"
       style="fill:#ff0000;fill-rule:evenodd;stroke-width:0.27535"
       id="path15-5" /><path
       d="M 40.800886,188.34681 V 164.34672 H 16.800798 v 19.61741 c 0,2.42801 1.954664,4.38268 4.382679,4.38268 z"
       style="fill:#ff0000;fill-rule:evenodd;stroke-width:0.27535"
       id="path12-5" /><path
       d="m 42.800766,164.34672 v 24.00009 h 19.6174 c 2.42802,0 4.38268,-1.95467 4.38268,-4.38268 v -19.61741 z"
       style="fill:#ff0000;fill-rule:evenodd;stroke-width:0.27535"
       id="path9-8" /><path
       d="m 42.800766,138.34676 v 24.00008 h 24.00008 v -19.6174 c 0,-2.42802 -1.95466,-4.38268 -4.38268,-4.38268 z"
       style="fill:#ff0000;fill-rule:evenodd;stroke-width:0.27535"
       id="path5-2" /><path
       d="m 180.70261,162.34684 h 24.00009 v -24.00008 h -19.61741 c -2.42801,0 -4.38268,1.95466 -4.38268,4.38268 z"
       style="fill:#ff0000;fill-rule:evenodd;stroke-width:0.27535"
       id="path15-7" /><path
       d="m 204.7027,188.34681 v -24.00009 h -24.00009 v 19.61741 c 0,2.42801 1.95467,4.38268 4.38268,4.38268 z"
       style="fill:#ff0000;fill-rule:evenodd;stroke-width:0.27535"
       id="path12-4" /><path
       d="m 206.70258,164.34672 v 24.00009 h 19.6174 c 2.42802,0 4.38268,-1.95467 4.38268,-4.38268 v -19.61741 z"
       style="fill:#ff0000;fill-rule:evenodd;stroke-width:0.27535"
       id="path9-85" /><path
       d="m 206.70258,138.34676 v 24.00008 h 24.00008 v -19.6174 c 0,-2.42802 -1.95466,-4.38268 -4.38268,-4.38268 z"
       style="fill:#ff0000;fill-rule:evenodd;stroke-width:0.27535"
       id="path5-8" /><path
       d="M 71.434736,108.66039 H 95.434824 V 84.660311 H 75.817415 c -2.428015,0 -4.382679,1.95466 -4.382679,4.38268 z"
       style="fill:#ff0000;fill-rule:evenodd;stroke-width:0.27535"
       id="path15-8-6"
       inkscape:export-filename="../Assets/Set_Images/set_upper0_red.png"
       inkscape:export-xdpi="96"
       inkscape:export-ydpi="96" /><path
       d="M 95.434824,134.66036 V 110.66027 H 71.434736 v 19.61741 c 0,2.42801 1.954664,4.38268 4.382679,4.38268 z"
       style="fill:#ff0000;fill-rule:evenodd;stroke-width:0.27535"
       id="path12-7-4" /><path
       d="m 97.434704,110.66027 v 24.00009 H 117.0521 c 2.42802,0 4.38268,-1.95467 4.38268,-4.38268 v -19.61741 z"
       style="fill:#ff0000;fill-rule:evenodd;stroke-width:0.27535"
       id="path9-7-3" /><path
       d="M 97.434704,84.660311 V 108.66039 H 121.43478 V 89.042991 c 0,-2.42802 -1.95466,-4.38268 -4.38268,-4.38268 z"
       style="fill:#ff0000;fill-rule:evenodd;stroke-width:0.27535"
       id="path5-4-8" /><path
       d="M 71.434736,216.03329 H 95.434824 V 192.03321 H 75.817415 c -2.428015,0 -4.382679,1.95466 -4.382679,4.38268 z"
       style="fill:#ff0000;fill-rule:evenodd;stroke-width:0.27535"
       id="path15-8-3" /><path
       d="M 95.434824,242.03326 V 218.03317 H 71.434736 v 19.61741 c 0,2.42801 1.954664,4.38268 4.382679,4.38268 z"
       style="fill:#ff0000;fill-rule:evenodd;stroke-width:0.27535"
       id="path12-7-7" /><path
       d="m 97.434704,218.03317 v 24.00009 H 117.0521 c 2.42802,0 4.38268,-1.95467 4.38268,-4.38268 v -19.61741 z"
       style="fill:#ff0000;fill-rule:evenodd;stroke-width:0.27535"
       id="path9-7-5" /><path
       d="m 97.434704,192.03321 v 24.00008 h 24.000076 v -19.6174 c 0,-2.42802 -1.95466,-4.38268 -4.38268,-4.38268 z"
       style="fill:#ff0000;fill-rule:evenodd;stroke-width:0.27535"
       id="path5-4-7" /></g></svg>
