<?xml version="1.0" encoding="UTF-8" standalone="no"?>
<!-- Created with Inkscape (http://www.inkscape.org/) -->

<svg
   width="210mm"
   height="297mm"
   viewBox="0 0 210 297"
   version="1.1"
   id="svg1"
   sodipodi:docname="cube_background.svg"
   inkscape:export-filename="cube_background.png"
   inkscape:export-xdpi="96"
   inkscape:export-ydpi="96"
   inkscape:version="1.3.2 (091e20e, 2023-11-25)"
   xmlns:inkscape="http://www.inkscape.org/namespaces/inkscape"
   xmlns:sodipodi="http://sodipodi.sourceforge.net/DTD/sodipodi-0.dtd"
   xmlns="http://www.w3.org/2000/svg"
   xmlns:svg="http://www.w3.org/2000/svg">
  <sodipodi:namedview
     id="namedview1"
     pagecolor="#ffffff"
     bordercolor="#000000"
     borderopacity="0.25"
     inkscape:showpageshadow="false"
     inkscape:pageopacity="0.0"
     inkscape:pagecheckerboard="false"
     inkscape:deskcolor="#d1d1d1"
     inkscape:document-units="mm"
     inkscape:zoom="0.84028348"
     inkscape:cx="375.46853"
     inkscape:cy="895.53111"
     inkscape:window-width="1280"
     inkscape:window-height="776"
     inkscape:window-x="0"
     inkscape:window-y="24"
     inkscape:window-maximized="0"
     inkscape:current-layer="layer1"
     shape-rendering="crispEdges"
     showborder="false"
     borderlayer="false" />
  <defs
     id="defs1">
    <inkscape:perspective
       sodipodi:type="inkscape:persp3d"
       inkscape:vp_x="-21.318092 : 149.94611 : 1"
       inkscape:vp_y="0 : 1000 : 0"
       inkscape:vp_z="215.37519 : 145.67519 : 1"
       inkscape:persp3d-origin="70.335265 : 170.91639 : 1"
       id="perspective48" />
    <inkscape:perspective
       sodipodi:type="inkscape:persp3d"
       inkscape:vp_x="-28.4178 : 211.5904 : 1"
       inkscape:vp_y="0 : 1261.0743 : 0"
       inkscape:vp_z="246.73333 : 217.52885 : 1"
       inkscape:persp3d-origin="113.60179 : 126.88703 : 1"
       id="perspective11" />
    <clipPath
       clipPathUnits="userSpaceOnUse"
       id="clipPath49">
      <g
         inkscape:label="Clip"
         id="use49">
        <g
           sodipodi:type="inkscape:box3d"
           id="g85"
           style="fill:#000000"
           inkscape:perspectiveID="#perspective48"
           inkscape:corner0="0.073223461 : 0.019012896 : 0 : 1"
           inkscape:corner7="0.7651995 : -0.047495083 : 0.635839 : 1">
          <path
             sodipodi:type="inkscape:box3dside"
             id="path80"
             style="fill:#e9e9ff;fill-rule:evenodd;stroke:none;stroke-linejoin:round"
             inkscape:box3dsidetype="11"
             d="m 454.93815,473.37844 -154.33339,23.75212 v 104.69167 l 154.33339,18.63611 z"
             points="300.60476,497.13056 300.60476,601.82223 454.93815,620.45834 454.93815,473.37844 " />
          <path
             sodipodi:type="inkscape:box3dside"
             id="path81"
             style="fill:#d7d7ff;fill-rule:evenodd;stroke:none;stroke-linejoin:round"
             inkscape:box3dsidetype="14"
             d="M 115.66975,470.18494 V 612.58739 L 300.60476,601.82223 V 497.13056 Z"
             points="115.66975,612.58739 300.60476,601.82223 300.60476,497.13056 115.66975,470.18494 " />
          <path
             sodipodi:type="inkscape:box3dside"
             id="path82"
             style="fill:#afafde;fill-rule:evenodd;stroke:none;stroke-linejoin:round"
             inkscape:box3dsidetype="13"
             d="M 242.1996,649.20557 115.66975,612.58739 300.60476,601.82223 454.93815,620.45834 Z"
             points="115.66975,612.58739 300.60476,601.82223 454.93815,620.45834 242.1996,649.20557 " />
          <path
             sodipodi:type="inkscape:box3dside"
             id="path83"
             style="fill:#4d4d9f;fill-rule:evenodd;stroke:none;stroke-linejoin:round"
             inkscape:box3dsidetype="5"
             d="m 242.1996,414.98712 -126.52985,55.19782 184.93501,26.94562 154.33339,-23.75212 z"
             points="115.66975,470.18494 300.60476,497.13056 454.93815,473.37844 242.1996,414.98712 " />
          <path
             sodipodi:type="inkscape:box3dside"
             id="path84"
             style="fill:#353564;fill-rule:evenodd;stroke:none;stroke-linejoin:round"
             inkscape:box3dsidetype="6"
             d="M 242.1996,414.98712 V 649.20557 L 454.93815,620.45834 V 473.37844 Z"
             points="242.1996,649.20557 454.93815,620.45834 454.93815,473.37844 242.1996,414.98712 " />
          <path
             sodipodi:type="inkscape:box3dside"
             id="path85"
             style="fill:#8686bf;fill-rule:evenodd;stroke:none;stroke-linejoin:round"
             inkscape:box3dsidetype="3"
             d="M 242.1996,414.98712 115.66975,470.18494 V 612.58739 L 242.1996,649.20557 Z"
             points="115.66975,470.18494 115.66975,612.58739 242.1996,649.20557 242.1996,414.98712 " />
        </g>
      </g>
    </clipPath>
  </defs>
  <g
     inkscape:label="Layer 1"
     inkscape:groupmode="layer"
     id="layer1">
    <path
       d="m 102.68986,13.11107 c -6.161388,0 -50.278329,22.737 -53.359021,27.50013 -3.080692,4.76314 -3.080692,50.23661 0,54.99975 3.080692,4.76313 47.197633,27.50013 53.359021,27.50013 6.16138,0 50.27832,-22.737 53.35901,-27.50013 3.08069,-4.76314 3.0807,-50.23661 0,-54.99975 -3.08069,-4.76313 -47.19763,-27.50013 -53.35901,-27.50013 z"
       style="fill:#333333;fill-rule:evenodd;stroke-width:0.264583"
       id="path78" />
    <path
       d="m 98.591515,183.46799 c -6.16139,0 -50.27833,22.737 -53.35902,27.50013 -3.08069,4.76314 -3.08069,50.23661 0,54.99975 3.08069,4.76313 47.19763,27.50013 53.35902,27.50013 6.161375,0 50.278315,-22.737 53.359005,-27.50013 3.08069,-4.76314 3.0807,-50.23661 0,-54.99975 -3.08069,-4.76313 -47.19763,-27.50013 -53.359005,-27.50013 z"
       style="fill:#333333;fill-rule:evenodd;stroke-width:0.264583"
       id="path78-9"
       inkscape:export-filename="cube_background.tiff"
       inkscape:export-xdpi="96"
       inkscape:export-ydpi="96" />
  </g>
  <g
     inkscape:groupmode="layer"
     id="layer2"
     inkscape:label="Layer 2">
    <rect
       style="fill:#ff0000;fill-rule:evenodd;stroke-width:0.310541"
       id="rect79"
       width="58.806095"
       height="54.047913"
       x="55.071606"
       y="16.242584"
       ry="10.174475"
       transform="matrix(0.89252514,0.45099764,0,1,0,0)"
       inkscape:export-filename="left_red.png"
       inkscape:export-xdpi="96"
       inkscape:export-ydpi="96" />
    <rect
       style="fill:#0000ff;fill-rule:evenodd;stroke-width:0.310541"
       id="rect79-1"
       width="58.806095"
       height="54.047913"
       x="-175.03923"
       y="120.02203"
       ry="10.174475"
       transform="matrix(-0.89252514,0.45099764,0,1,0,0)"
       inkscape:export-filename="right_blue.png"
       inkscape:export-xdpi="96"
       inkscape:export-ydpi="96" />
    <rect
       style="display:inline;fill:#e6e6e6;fill-rule:evenodd;stroke-width:0.276011"
       id="rect86"
       width="57.927147"
       height="56.736866"
       x="72.153793"
       y="-42.746899"
       ry="10.613963"
       transform="matrix(0.88912182,0.45767062,-0.88912181,0.45767063,0,0)"
       inkscape:export-filename="top_white.png"
       inkscape:export-xdpi="96"
       inkscape:export-ydpi="96" />
    <rect
       style="fill:#1a1a1a;fill-rule:evenodd;stroke-width:0.264583"
       id="rect103"
       width="1.609189"
       height="92.689285"
       x="73.003654"
       y="52.76545"
       ry="0.80459452" />
    <rect
       style="fill:#1a1a1a;fill-rule:evenodd;stroke-width:0.264583"
       id="rect103-2"
       width="1.609189"
       height="92.689285"
       x="130.76685"
       y="52.76545"
       ry="0.80459452" />
    <rect
       style="fill:#1a1a1a;fill-rule:evenodd;stroke-width:0.259633"
       id="rect103-8"
       width="1.5387847"
       height="93.337524"
       x="80.774933"
       y="-112.85748"
       ry="0.81022161"
       transform="matrix(0.53931086,0.84210676,-0.88704129,0.4616901,0,0)" />
    <rect
       style="fill:#1a1a1a;fill-rule:evenodd;stroke-width:0.259633"
       id="rect103-8-9"
       width="1.5387847"
       height="93.337524"
       x="-14.429777"
       y="60.792603"
       ry="0.81022161"
       transform="matrix(-0.53931086,0.84210676,0.88704129,0.4616901,0,0)" />
    <rect
       style="fill:#1a1a1a;fill-rule:evenodd;stroke-width:0.230769"
       id="rect103-9"
       width="1.609189"
       height="70.511871"
       x="132.19917"
       y="-118.59143"
       ry="0.61208224"
       transform="rotate(63)" />
    <rect
       style="fill:#1a1a1a;fill-rule:evenodd;stroke-width:0.230769"
       id="rect103-9-1"
       width="1.609189"
       height="70.511871"
       x="38.139645"
       y="66.010788"
       ry="0.61208224"
       transform="matrix(-0.4539905,0.89100652,0.89100652,0.4539905,0,0)" />
    <path
       d="M 68.905207,277.94184 V 252.57026 L 45.054466,240.41752 v 15.29726 c 0,5.63664 4.049733,12.22132 9.080583,14.76344 z"
       style="fill:#ff0000;fill-rule:evenodd;stroke-width:0.310541"
       id="path175"
       inkscape:export-filename="front2_orange.png"
       inkscape:export-xdpi="96"
       inkscape:export-ydpi="96" />
    <path
       d="M 97.540152,267.16059 70.514411,253.39037 v 25.36434 l 17.944641,9.06767 c 5.03085,2.5421 9.0811,0.0504 9.0811,-5.58623 z"
       style="fill:#ff0000;fill-rule:evenodd;stroke-width:0.310541"
       id="path172"
       inkscape:export-filename="front3_orange.png"
       inkscape:export-xdpi="96"
       inkscape:export-ydpi="96" />
    <path
       d="m 70.514411,224.70685 v 26.87691 l 27.025741,13.77022 v -16.81654 c 0,-5.63666 -4.05025,-12.22081 -9.0811,-14.76293 z"
       style="fill:#ff0000;fill-rule:evenodd;stroke-width:0.310541"
       id="path169"
       inkscape:export-filename="front1_orange.png"
       inkscape:export-xdpi="96"
       inkscape:export-ydpi="96" />
    <path
       d="m 50.59418,215.43765 c -3.261483,-0.10757 -5.539714,2.35092 -5.539714,6.57841 v 16.59537 l 23.850741,12.15223 v -26.43198 c 0,-0.14143 0.04599,-0.26716 0.109554,-0.38241 l -14.879712,-7.51892 c -1.257713,-0.63553 -2.453708,-0.95685 -3.540869,-0.9927 z"
       style="fill:#ff0000;fill-rule:evenodd;stroke-width:0.310541"
       id="path166"
       inkscape:export-filename="front0_orange.png"
       inkscape:export-xdpi="96"
       inkscape:export-ydpi="96" />
    <path
       d="M 99.642349,266.27382 126.66809,252.5036 v -27.79675 l -17.94464,9.06766 c -5.03086,2.54212 -9.081101,9.12627 -9.081101,14.76293 z"
       style="fill:#0000ff;fill-rule:evenodd;stroke-width:0.310541"
       id="path154"
       inkscape:export-filename="right0_orange.png"
       inkscape:export-xdpi="96"
       inkscape:export-ydpi="96" />
    <path
       d="m 126.66809,278.75471 v -24.44502 l -26.63455,13.57075 c -0.126447,0.0644 -0.26236,0.0712 -0.391191,0.0465 v 14.3092 c 0,5.63666 4.050241,8.12834 9.081101,5.58623 z"
       style="fill:#0000ff;fill-rule:evenodd;stroke-width:0.310541"
       id="path151"
       inkscape:export-filename="right2_orange.png"
       inkscape:export-xdpi="96"
       inkscape:export-ydpi="96" />
    <path
       d="m 152.12855,241.33684 -23.85126,12.15275 v 24.45225 l 14.77016,-7.46362 c 5.03085,-2.54212 9.0811,-9.12679 9.0811,-14.76344 z"
       style="fill:#0000ff;fill-rule:evenodd;stroke-width:0.310541"
       id="path148"
       inkscape:export-filename="right3_orange.png"
       inkscape:export-xdpi="96"
       inkscape:export-ydpi="96" />
    <path
       d="m 146.58884,215.43765 c -1.08717,0.0359 -2.28368,0.35717 -3.54139,0.9927 l -14.87971,7.51892 c 0.0636,0.11525 0.10955,0.24098 0.10955,0.38241 v 27.35182 l 23.85126,-12.15275 v -17.51469 c 0,-4.22749 -2.27823,-6.68598 -5.53971,-6.57841 z"
       style="fill:#0000ff;fill-rule:evenodd;stroke-width:0.310541"
       id="path145"
       inkscape:export-filename="right1_orange.png"
       inkscape:export-xdpi="96"
       inkscape:export-ydpi="96" />
    <path
       d="m 71.140213,222.29614 25.79119,-13.42398 -23.250777,-12.10159 -16.627409,8.55917 c -5.228151,2.69116 -5.228152,7.024 0,9.71517 z"
       style="display:inline;fill:#e6e6e6;fill-rule:evenodd;stroke-width:0.276011"
       id="path144"
       inkscape:export-filename="upper2_orange.png"
       inkscape:export-xdpi="96"
       inkscape:export-ydpi="96" />
    <path
       d="m 124.89972,223.42889 -26.30847,-13.6927 -25.781889,13.41933 16.873906,8.68578 c 5.228151,2.69116 13.646143,2.69116 18.874293,0 z"
       style="display:inline;fill:#e6e6e6;fill-rule:evenodd;stroke-width:0.276011"
       id="path141"
       inkscape:export-filename="upper3_orange.png"
       inkscape:export-xdpi="96"
       inkscape:export-ydpi="96" />
    <path
       d="m 100.25161,208.87216 26.31726,13.69787 13.56041,-6.98045 c 5.22815,-2.69117 5.22815,-7.02401 0,-9.71517 l -17.15347,-8.82995 z"
       style="display:inline;fill:#e6e6e6;fill-rule:evenodd;stroke-width:0.276011"
       id="path138"
       inkscape:export-filename="upper1_orange.png"
       inkscape:export-xdpi="96"
       inkscape:export-ydpi="96" />
    <path
       d="m 75.349775,195.91119 23.241475,12.09694 22.71541,-11.82254 -13.80743,-7.10757 c -5.22815,-2.69117 -13.646145,-2.69117 -18.874297,0 z"
       style="display:inline;fill:#e6e6e6;fill-rule:evenodd;stroke-width:0.276011"
       id="path134"
       inkscape:export-filename="upper0_orange.png"
       inkscape:export-xdpi="96"
       inkscape:export-ydpi="96" />
    <path
       d="m 99.642349,267.78226 c -0.04081,0.0377 -0.08793,0.063 -0.136426,0.0879 0.04542,0.0198 0.0875,0.0475 0.136426,0.0568 z"
       style="fill:#ff0000;fill-rule:evenodd;stroke-width:0.230769"
       id="path182" />
    <path
       d="m 99.493521,266.34979 0.148828,0.0754 v -0.15141 z"
       style="fill:#ff0000;fill-rule:evenodd;stroke-width:0.230769"
       id="path179" />
  </g>
</svg>
